<?xml version="1.0" encoding="UTF-8" standalone="no"?>
<svg
   width="207.5"
   height="147.5"
   viewBox="0 0 207.5 147.5"
   fill="none"
   stroke="currentColor"
   stroke-width="0.75"
   stroke-linecap="round"
   stroke-linejoin="round"
   class="lucide lucide-toggle-left-icon lucide-toggle-left"
   version="1.1"
   id="svg1"
   xml:space="preserve"
   xmlns="http://www.w3.org/2000/svg"
   xmlns:svg="http://www.w3.org/2000/svg"><defs
     id="defs1" /><rect
     width="200.00002"
     height="140.00002"
     x="3.749995"
     y="3.749995"
     rx="70"
     id="rect1"
     style="stroke-width:7.49999" /><ellipse
     style="display:none;fill:#ffffff;stroke:#000000;stroke-width:0;paint-order:stroke fill markers"
     id="path9"
     cx="145.40018"
     cy="72.978622"
     rx="18.38393"
     ry="21.726461" /><g
     style="display:inline;fill:none;stroke:currentColor;stroke-width:1;stroke-linecap:round;stroke-linejoin:round"
     id="g1"
     transform="matrix(5.3697001,0,0,6.3945252,-3.2009261,-3.3762917)"><path
       d="M 20.985,12.486 A 9,9 0 1 1 11.512,3.014 c 0.405,-0.022 0.617,0.46 0.402,0.803 a 6,6 0 0 0 8.268,8.268 c 0.344,-0.215 0.825,-0.004 0.803,0.401"
       id="path1"
       style="fill:#ffffff;fill-opacity:1" /></g><g
     style="display:none;fill:none;stroke:currentColor;stroke-width:1;stroke-linecap:round;stroke-linejoin:round"
     id="g2"
     transform="matrix(5.0550773,0,0,5.7932199,84.566143,3.9468639)"><circle
       cx="12"
       cy="12"
       r="4"
       id="circle1" /><path
       d="M 12,2 V 4"
       id="path1-5" /><path
       d="m 12,20 v 2"
       id="path2" /><path
       d="M 4.93,4.93 6.34,6.34"
       id="path3" /><path
       d="m 17.66,17.66 1.41,1.41"
       id="path4" /><path
       d="M 2,12 H 4"
       id="path5" /><path
       d="m 20,12 h 2"
       id="path6" /><path
       d="M 6.34,17.66 4.93,19.07"
       id="path7" /><path
       d="M 19.07,4.93 17.66,6.34"
       id="path8" /></g></svg>
